<?xml version="1.0" standalone="no"?>
<!DOCTYPE svg PUBLIC "-//W3C//DTD SVG 1.1//EN" "http://www.w3.org/Graphics/SVG/1.1/DTD/svg11.dtd" >
<!--
2013-9-30: Created.
-->
<svg>
<metadata>
Created by iconfont
</metadata>
<defs>

<font id="iconfont" horiz-adv-x="1024" >
  <font-face
    font-family="iconfont"
    font-weight="500"
    font-stretch="normal"
    units-per-em="1024"
    ascent="896"
    descent="-128"
  />
    <missing-glyph />
    
    <glyph glyph-name="cross" unicode="&#58912;" d="M784.077 85.82100000000003a26.112 26.112 0 0 0-18.36 7.619L511.994 347.16200000000003 258.284 93.45000000000005a25.866 25.866 0 0 0-18.253-7.46 25.923 25.923 0 0 0-18.289 7.491c-4.956 4.884-7.716 11.407-7.767 18.365s2.611 13.522 7.49 18.478l253.681 253.681L221.44 637.716c-9.902 10.051-9.902 26.456 0.03 36.542a25.85 25.85 0 0 0 18.56 7.767 25.913 25.913 0 0 0 18.284-7.49L511.99 420.848 765.706 674.56c4.92 4.915 11.459 7.629 18.422 7.629s13.501-2.709 18.427-7.629a26.107 26.107 0 0 0-0.005-36.844L548.838 384 802.55 130.289a25.897 25.897 0 0 0 7.618-18.386 26.092 26.092 0 0 0-26.045-26.087h-0.046z"  horiz-adv-x="1024" />

    
    <glyph glyph-name="jiantoushang" unicode="&#58906;" d="M898 166c-6.4 0-12.8 2.4-17.7 7.3L512 541.6 143.7 173.29999999999995c-9.8-9.8-25.6-9.8-35.4 0-9.8 9.8-9.8 25.6 0 35.4l386 386c9.8 9.8 25.6 9.8 35.4 0l386-386c9.8-9.8 9.8-25.6 0-35.4-4.9-4.9-11.3-7.3-17.7-7.3z"  horiz-adv-x="1024" />

    
    <glyph glyph-name="jiantouxia" unicode="&#58907;" d="M512 166c-6.4 0-12.8 2.4-17.7 7.3l-386 386c-9.8 9.8-9.8 25.6 0 35.4 9.8 9.8 25.6 9.8 35.4 0L512 226.39999999999998l368.3 368.3c9.8 9.8 25.6 9.8 35.4 0 9.8-9.8 9.8-25.6 0-35.4l-386-386c-4.9-4.9-11.3-7.3-17.7-7.3z"  horiz-adv-x="1024" />

    
    <glyph glyph-name="jiantouyou" unicode="&#58908;" d="M319-27c-6.4 0-12.8 2.4-17.7 7.3-9.8 9.8-9.8 25.6 0 35.4L669.6 384 301.3 752.3c-9.8 9.8-9.8 25.6 0 35.4 9.8 9.8 25.6 9.8 35.4 0l386-386c9.8-9.8 9.8-25.6 0-35.4l-386-386c-4.9-4.9-11.3-7.3-17.7-7.3z"  horiz-adv-x="1024" />

    
    <glyph glyph-name="jiantouzuo" unicode="&#58909;" d="M705-27c-6.4 0-12.8 2.4-17.7 7.3l-386 386c-9.8 9.8-9.8 25.6 0 35.4l386 386c9.8 9.8 25.6 9.8 35.4 0 9.8-9.8 9.8-25.6 0-35.4L354.4 384l368.3-368.3c9.8-9.8 9.8-25.6 0-35.4-4.9-4.9-11.3-7.3-17.7-7.3z"  horiz-adv-x="1024" />

    
    <glyph glyph-name="shijiantoushang" unicode="&#58910;" d="M512 629.5l421.2-491H90.8z"  horiz-adv-x="1024" />

    
    <glyph glyph-name="shijiantouxia" unicode="&#58911;" d="M512 138.5l-421.2 491h842.4z"  horiz-adv-x="1024" />

    
    <glyph glyph-name="shijiantouyou" unicode="&#58914;" d="M757.6 384L266.5-37.200000000000045V805.2z"  horiz-adv-x="1024" />

    
    <glyph glyph-name="shijiantouzuo" unicode="&#58915;" d="M266.4 384L757.5 805.2v-842.4z"  horiz-adv-x="1024" />

    
    <glyph glyph-name="gouwujianying" unicode="&#59005;" d="M926.544163 555.030788a74.398274 74.398274 0 0 1-73.300144 68.08403h-71.927483C758.530349 816.6601430000001 647.344736 896 511.45121 896S264.372071 816.6601430000001 242.684013 623.114818H170.75653a74.672806 74.672806 0 0 1-73.300144-68.08403L44.746169-59.64720299999999a68.084029 68.084029 0 0 1 74.123742-68.08403h786.260727A68.358562 68.358562 0 0 1 978.15625-59.64720299999999l-51.612087 614.677991zM511.45121 827.641438c99.106188 0 181.740433-49.141295 200.683167-204.801153H311.317107c18.942734 155.659858 101.576979 204.801153 200.683168 204.801153zM307.199122 418.313665a68.358562 68.358562 0 1 0 0 137.266188 68.358562 68.358562 0 0 0 0-137.266188z m409.602306 0a68.358562 68.358562 0 0 0 0 137.266188 68.358562 68.358562 0 0 0 0-137.266188z"  horiz-adv-x="1024" />

    
    <glyph glyph-name="liebiao" unicode="&#58899;" d="M834.939259 520.438519c-17.635556 41.718519-42.951111 79.265185-75.093333 111.407407-32.142222 32.142222-69.688889 57.457778-111.407407 75.093333-43.235556 18.299259-89.125926 27.591111-136.438519 27.591111-47.312593 0-93.202963-9.291852-136.438519-27.591111-41.718519-17.635556-79.265185-42.951111-111.407407-75.093333-32.142222-32.142222-57.457778-69.688889-75.093333-111.407407-18.299259-43.235556-27.591111-89.125926-27.591111-136.438519 0-47.312593 9.291852-93.202963 27.591111-136.438519 17.635556-41.718519 42.951111-79.265185 75.093333-111.407407 32.142222-32.142222 69.688889-57.457778 111.407407-75.093333 43.235556-18.299259 89.125926-27.591111 136.438519-27.591111 47.312593 0 93.202963 9.291852 136.438519 27.591111 41.718519 17.635556 79.265185 42.951111 111.407407 75.093333 32.142222 32.142222 57.457778 69.688889 75.093333 111.407407 18.299259 43.235556 27.591111 89.125926 27.591111 136.438519C862.53037 431.312593 853.238519 477.202963 834.939259 520.438519zM513.517037 65.801481c-179.579259-0.853333-320.568889 140.231111-319.715556 319.715556 0.853333 177.872593 140.136296 316.586667 318.198519 316.586667 178.536296 0 317.25037-139.567407 317.25037-318.198519C829.25037 205.937778 691.38963 66.654815 513.517037 65.801481zM694.802963 292.598519 329.197037 292.598519c-9.102222 0-16.402963-8.533333-16.402963-18.962963 0-10.42963 7.395556-18.962963 16.402963-18.962963l365.605926 0c9.102222 0 16.402963 8.533333 16.402963 18.962963C711.205926 284.16 703.905185 292.598519 694.802963 292.598519zM694.802963 398.885926 329.197037 398.885926c-9.102222 0-16.402963-8.533333-16.402963-18.962963 0-10.42963 7.395556-18.962963 16.402963-18.962963l365.605926 0c9.102222 0 16.402963 8.533333 16.402963 18.962963C711.205926 390.352593 703.905185 398.885926 694.802963 398.885926zM694.802963 513.327407 329.197037 513.327407c-9.102222 0-16.402963-8.533333-16.402963-18.962963 0-10.42963 7.395556-18.962963 16.402963-18.962963l365.605926 0c9.102222 0 16.402963 8.533333 16.402963 18.962963C711.205926 504.794074 703.905185 513.327407 694.802963 513.327407z"  horiz-adv-x="1024" />

    
    <glyph glyph-name="iconfontzhizuobiaozhun023133" unicode="&#59015;" d="M980.129328 618.33405c-25.529443 54.042847-62.077847 102.542444-108.632139 144.154167-46.529733 41.590234-100.742449 74.229608-161.131841 97.014544-62.500473 23.580045-128.966257 35.536354-197.552332 35.536354-68.596308 0-135.147026-11.95631-197.802018-35.534308-60.562331-22.790052-114.960265-55.428404-161.684426-97.006358-46.782489-41.630143-83.520205-90.128717-109.193935-144.148028-26.612101-55.992245-40.10337-115.480104-40.10337-176.809915 0-144.607492 69.542866-275.263228 190.952007-359.022886 0.332575-19.534915 0.105401-125.359103-0.149403-196.918905l-0.045025-12.637832 197.648522 126.740566c36.996612-7.540743 78.467119-11.682064 117.132744-11.682064 281.437857 0 510.403642 203.447599 510.403642 453.520097C1019.971755 502.888737 1006.566444 562.372503 980.129328 618.33405zM823.292304 170.362318c-82.772168-72.702835-193.037505-112.743784-310.479287-112.743784-44.484144 0-94.488001 6.175653-133.75533 16.519232l-2.869351 0.7552-117.176746-72.964802 0 113.882724c0 7.748475-7.813966 12.747325-16.086373 18.041912-1.311879 0.839111-2.635013 1.684362-3.906983 2.532683-107.436918 71.823815-169.056324 183.047989-169.056324 305.155025 0 211.694423 197.860347 383.921973 441.062368 383.921973 242.701624 0 440.154695-172.22755 440.154695-383.921973C951.178973 339.10551 905.76055 242.799094 823.292304 170.362318zM249.033331 437.6632m-70.783113 0a69.171 69.171 0 1 0 141.566226 0 69.171 69.171 0 1 0-141.566226 0ZM514.443144 437.6632m-70.78209 0a69.17 69.17 0 1 0 141.564179 0 69.17 69.17 0 1 0-141.564179 0ZM779.852956 437.6632m-70.783113 0a69.171 69.171 0 1 0 141.566226 0 69.171 69.171 0 1 0-141.566226 0Z"  horiz-adv-x="1024" />

    
    <glyph glyph-name="Shapecopy" unicode="&#58892;" d="M921.6-128H102.4a51.2 51.2 0 0 0-50.5088 59.6224l102.4 614.4A51.2 51.2 0 0 0 204.8 588.8h614.4a51.2 51.2 0 0 0 50.5088-42.7776l102.4-614.4A51.2 51.2 0 0 0 921.6-128zM162.8416-25.6h698.3168l-85.3248 512H248.1664zM716.8 640h-102.4V691.2a102.4 102.4 0 0 1-204.8 0v-51.2h-102.4V691.2a204.8 204.8 0 0 0 409.6 0v-51.2z"  horiz-adv-x="1024" />

    
    <glyph glyph-name="aixin_shixin" unicode="&#58891;" d="M32 488.416A279.584 279.584 0 0 0 512 683.36a279.584 279.584 0 0 0 480-194.944 278.144 278.144 0 0 0-113.024-224.512L562.592 3.2a96 96 0 0 0-124.416 1.952L130.016 275.84A278.976 278.976 0 0 0 32 488.416z"  horiz-adv-x="1024" />

    
    <glyph glyph-name="shuangzizuo" unicode="&#58880;" d="M143.36 78.848q63.488 19.456 126.976 29.696l0 424.96q-63.488 10.24-126.976 29.696l0 159.744q93.184-27.648 180.736-39.936t185.856-12.288q104.448 0 197.12 13.824t192 45.568l0-159.744q-34.816-11.264-69.12-19.968t-70.144-15.872l0-427.008q35.84-7.168 70.144-15.872t69.12-19.968l0-159.744q-99.328 31.744-192 45.568t-197.12 13.824q-98.304 0-185.856-12.288t-180.736-39.936l0 159.744zM509.952 129.024q13.312 0 34.816-0.512t33.792-0.512l0 386.048-68.608 0-59.392 0 0-386.048q11.264 0 30.208 0.512t29.184 0.512z"  horiz-adv-x="1024" />

    
    <glyph glyph-name="jinniuzuo" unicode="&#58881;" d="M92.16 749.568q19.456 5.12 46.08 3.072 22.528-2.048 54.272-10.24t74.752-29.696q28.672-15.36 52.736-37.376t44.544-47.104 38.912-49.664 36.864-44.544 37.376-32.768 41.472-12.8 41.984 12.8 37.888 32.768 36.864 44.544 38.912 49.664 44.544 47.104 52.736 37.376q41.984 21.504 74.24 29.696t54.784 10.24q26.624 2.048 46.08-3.072l0-161.792q-21.504 1.024-40.96-2.048-17.408-2.048-36.864-7.168t-33.792-16.384q-11.264-8.192-26.624-26.112t-33.28-39.936-37.888-45.056-38.4-41.472q55.296-39.936 88.576-100.352t33.28-131.072q0-60.416-24.064-113.152t-65.536-91.648-97.792-61.952-119.808-23.04-119.808 23.04-97.792 61.952-65.536 91.648-24.064 113.152q0 73.728 34.816 135.168t93.184 100.352q-18.432 18.432-36.864 40.96t-36.352 44.032-32.768 38.4-25.088 25.088q-15.36 11.264-34.304 16.384t-36.352 7.168q-19.456 3.072-40.96 2.048l0 161.792zM374.784 179.2q0-28.672 10.752-53.76t29.696-44.032 44.544-29.696 54.272-10.752 54.272 10.752 45.056 29.696 30.208 44.032 10.752 53.76-10.752 53.76-30.208 43.52-45.056 29.184-54.272 10.752-54.272-10.752-44.544-29.184-29.696-43.52-10.752-53.76z"  horiz-adv-x="1024" />

    
    <glyph glyph-name="sheshouzuo" unicode="&#58884;" d="M208.530432 410.432c-1.577984 0.341-3.150848 0.727-4.711424 1.209C203.819008 411.642 205.3888 410.807 208.530432 410.432zM839.82848 256.021c-10.345472 68.029-78.635008 107.104-130.374656 96.333-32.108544-6.688-76.447744 13.358-107.936768 43.541 51.201024 62.533 91.214848 106.69 91.214848 106.69l11.894784-40.418 51.733504 116.202-127.268864-61.638 53.8112-4.038c-26.232832-16.811-60.331008-54.344-96.310272-100.475-11.584512 14.583-19.861504 30.573-22.684672 46.568-10.341376 58.605-44.83584 131.362-104.164352 146.859-59.324416 15.498-125.543424-76.789-125.543424-76.789C263.34208 415.535 221.819904 408.847 208.530432 410.432c68.877312-14.91 153.253888 101.571 153.259008 101.571 31.72352 34.362 93.81888 51.864 129.005568 16.174 35.180544-35.704 6.897664-111.15 56.559616-167.737 0.095232-0.109 0.192512-0.212 0.288768-0.32-88.844288-123.274-176.196608-271.83-176.196608-271.83l-43.459584-15.155-42.421248-97.009 66.217984 29.305 11.389952-67.7c0 0 0-2.519 0-4.041 0 4.041 37.248 90.938 37.248 90.938l-5.178368 59.62c27.063296 74.31 99.874816 177.166 166.683648 262.293 49.65888-39.455 119.343104-25.076 160.64-37.297 45.528064-13.465 107.613184-76.793 2.75456-179.193-104.856576-102.399-50.363392-171.107-50.363392-171.107-24.147968 72.752 55.877632 131.361 95.198208 169.761C809.474048 167.093 850.184192 187.984 839.82848 256.021zM336.26624 82.233 275.21536 408.609 262.803456 402.548 325.920768 82.233ZM406.629376 8.464 649.783296 19.576 649.783296 35.746 406.629376 19.576Z"  horiz-adv-x="1024" />

    
    <glyph glyph-name="yanzhengchenggong" unicode="&#58940;" d="M512 812C229.230933 812 0 582.769067 0 300s229.230933-512 512-512 512 229.230933 512 512S794.769067 812 512 812zM758.912 430.7136 474.146133 149.7792c-0.733867-1.1008-1.5616-2.167467-2.525867-3.140267-8.490667-8.6272-22.2464-8.6272-30.737067 0L265.079467 315.573333c-8.482133 8.618667-8.482133 22.587733 0 31.1808 8.482133 8.618667 22.2464 8.618667 30.728533 0L455.936 193.768533l272.256 268.142933c8.490667 8.618667 22.2464 8.618667 30.737067 0C767.402667 453.301333 767.402667 439.323733 758.912 430.7136z"  horiz-adv-x="1024" />

    
    <glyph glyph-name="juxiezuo" unicode="&#58896;" d="M255.862877 172.333342c105.97359 0 191.882192 85.908602 191.882192 191.882192s-85.908602 191.882192-191.882192 191.882192c-10.323113 0-20.452821-0.825808-30.334889-2.39556 1.992377 1.682315 4.01443 3.364631 6.067182 5.045923 85.036745 69.650313 179.279153 104.965633 280.109606 104.965633 101.05251 0 193.363939-30.593785 274.370905-90.930989 60.898998-45.360094 92.206028-91.474364 92.498694-91.908246 6.219655-9.330506 18.825764-11.852956 28.158317-5.631254 9.330506 6.220678 11.851932 18.826787 5.631254 28.158317-1.384533 2.076288-34.668591 51.433416-100.652398 100.921527-38.680974 29.010731-80.730673 52.134381-124.979456 68.727291-55.339376 20.75265-114.226554 31.275307-175.026292 31.275307-61.0791 0-120.878045-12.149714-177.732937-36.111452-45.289486-19.087731-88.770789-45.657876-129.237433-78.973656-68.786643-56.631812-104.909351-112.873744-106.413612-115.240651-0.268106-0.421602-0.496304-0.854461-0.729617-1.287319C76.395436 441.848659 63.980685 404.484679 63.980685 364.215534 63.980685 258.241944 149.89031 172.333342 255.862877 172.333342zM362.828051 471.180707c28.571732-28.571732 44.306088-66.558905 44.306088-106.965174s-15.734356-78.393441-44.306088-106.965174-66.558905-44.307112-106.965174-44.307112-78.393441 15.735379-106.965174 44.307112-44.306088 66.558905-44.306088 106.965174 15.734356 78.393441 44.306088 106.965174 66.558905 44.306088 106.965174 44.306088S334.257342 499.75244 362.828051 471.180707zM767.547699 428.176264c-105.97359 0-191.882192-85.908602-191.882192-191.882192s85.908602-191.882192 191.882192-191.882192c10.323113 0 20.452821 0.825808 30.334889 2.39556-1.992377-1.682315-4.01443-3.364631-6.068206-5.046946-85.036745-69.64929-179.279153-104.96461-280.109606-104.96461-101.051487 0-193.363939 30.592762-274.370905 90.930989-60.898998 45.360094-92.207052 91.475388-92.498694 91.908246-6.220678 9.330506-18.826787 11.850909-28.158317 5.631254-9.330506-6.219655-11.851932-18.826787-5.631254-28.158317 1.384533-2.076288 34.667567-51.433416 100.652398-100.921527 38.680974-29.010731 80.730673-52.133358 124.979456-68.727291 55.339376-20.751626 114.226554-31.275307 175.026292-31.275307 61.0791 0 120.878045 12.149714 177.73396 36.111452 45.288462 19.086707 88.770789 45.657876 129.237433 78.974679 68.786643 56.631812 104.909351 112.873744 106.412588 115.239628 0.26606 0.418532 0.493234 0.850367 0.725524 1.280156 21.199835 30.862915 33.616632 68.230987 33.616632 108.50218C959.429891 342.267663 873.521289 428.176264 767.547699 428.176264zM660.582525 129.328899c-28.571732 28.571732-44.307112 66.559928-44.307112 106.965174s15.735379 78.393441 44.307112 106.965174 66.559928 44.306088 106.965174 44.306088 78.393441-15.734356 106.965174-44.306088 44.307112-66.559928 44.307112-106.965174-15.735379-78.393441-44.307112-106.965174-66.559928-44.307112-106.965174-44.307112S689.154257 100.757167 660.582525 129.328899z"  horiz-adv-x="1024" />

    
    <glyph glyph-name="tianchengzuo" unicode="&#58920;" d="M938.666667 213.333333 640 213.333333c-23.466667 0-42.666667 19.2-42.666667 42.666667s4.266667 32 29.866667 59.733333l10.666667 8.533333-10.666667-8.533333c46.933333 34.133333 76.8 89.6 76.8 153.6 0 106.666667-85.333333 192-192 192s-192-85.333333-192-192c0-64 76.8-153.6 76.8-153.6 21.333333-23.466667 29.866667-36.266667 29.866667-59.733333 0-23.466667-19.2-42.666667-42.666667-42.666667L85.333333 213.333333c-23.466667 0-42.666667 19.2-42.666667 42.666667s19.2 42.666667 42.666667 42.666667l209.066667 0c-36.266667 46.933333-59.733333 106.666667-59.733333 170.666667 0 153.6 123.733333 277.333333 277.333333 277.333333s277.333333-123.733333 277.333333-277.333333c0-64-23.466667-123.733333-59.733333-170.666667L938.666667 298.666667c23.466667 0 42.666667-19.2 42.666667-42.666667S962.133333 213.333333 938.666667 213.333333zM85.333333 106.666667l853.333333 0c23.466667 0 42.666667-19.2 42.666667-42.666667s-19.2-42.666667-42.666667-42.666667L85.333333 21.333333c-23.466667 0-42.666667 19.2-42.666667 42.666667S61.866667 106.666667 85.333333 106.666667z"  horiz-adv-x="1024" />

    
    <glyph glyph-name="mohezuo" unicode="&#58959;" d="M658.777925 426.156122c-34.311457 0-64.817238-15.32401-83.882456-38.320771l0 42.157145c0 72.818469-3.812839 157.13276-68.62803 157.13276-57.18542 0-91.496877-72.812329-114.374934-134.136-3.815909 15.33015-11.444657 30.655184-15.249309 42.160215-19.062148 42.157145-61.001329 80.484056-102.938464 80.484056-11.43647-0.011256-22.868847-11.506055-22.868847-23.00597 0-11.506055 11.447726-22.99983 22.878057-22.99983 19.065218 0 45.756113-26.833135 61.001329-57.487296 11.444657-22.99369 30.503734-91.975784 34.311457-114.972545 3.815909-11.493775 11.444657-19.163455 22.878057-19.163455 11.441587 0 19.065218 7.66968 22.874987 19.163455 11.444657 72.812329 49.572022 180.12952 91.496877 180.12952 22.878057 0 22.878057-61.320601 22.878057-111.14231 0-42.157145 0-84.317361 11.444657-118.80585-7.620561-22.99983-22.874987-61.320601-57.18849-72.812329-41.937135-15.33015-83.879386-7.67275-83.879386-7.67275-11.441587 0-22.871917-7.66661-26.679639-19.160385 0-11.493775 7.620561-22.99676 19.062148-26.830065l26.681686 0c19.062148 0 49.568952 0 80.063477 11.490705 34.311457 11.490705 53.372581 34.488489 68.62803 57.487296 19.065218-30.655184 53.375651-49.820686 91.499947-49.820686 61.004399 0 114.378004 49.820686 114.378004 114.975615C773.149788 372.492922 719.776184 426.156122 658.777925 426.156122L658.777925 426.156122zM658.777925 246.029672c-34.311457 0-68.633147 30.65723-68.633147 68.990281 0 34.490535 30.506804 68.993351 68.633147 68.993351 34.311457 0 68.6311-30.6603 68.6311-68.993351S696.904267 246.029672 658.777925 246.029672L658.777925 246.029672zM658.777925 246.029672"  horiz-adv-x="1024" />

    
    <glyph glyph-name="xiexian" unicode="&#58895;" d="M930.987 0.853l-35.84-34.987-802.133 802.133 35.84 34.987 802.133-802.133z"  horiz-adv-x="1024" />

    
    <glyph glyph-name="liumangxing" unicode="&#58885;" d="M511.3 832.8c-248 0-449-201-449-449s201-449 449-449 449 201 449 449-201 449-449 449z m0-880.6C273-47.799999999999955 79.8 145.39999999999998 79.8 383.79999999999995S273 815.3 511.3 815.3s431.5-193.2 431.5-431.5-193.1-431.6-431.5-431.6zM885 599.1l-249 0.2-124.6 216-124.6-215.8-249.1 0.2 124.6-216-124.6-216H387l124.3-215.5 124.4 215.5H885L760.4 383.5 885 599.1z m-32.2-413.2H625.7L512.3-10.5 399 185.89999999999998H171.9l113.6 196.9-113.6 196.7 227-0.2L512.3 776l113.6-196.8 226.9-0.2-113.5-196.5 113.5-196.6zM375 581.2l-102.1-178 12.5-20.5L399.2 580z m274.9-1.2l102-178-12.5-19.3L626 579.4z m-240-415.5l205.1 0.6 10.5 20.5-227-0.1zM377.8 184.20000000000005L273 364.6l12.4 19.3 113.6-198z m269.6 0.4l104.5 179.5-12.5 19.2-113.9-197.7zM410.3 600.2l205.1-0.6 10.5-20.4-227 0.1z"  horiz-adv-x="1024" />

    
    <glyph glyph-name="tianxiezuo" unicode="&#58974;" d="M733.866667-17.066667c93.866667 0 170.666667 76.8 170.666666 167.822223v5.688888h82.488889l-119.466666 159.288889-119.466667-159.288889h82.488889v-5.688888c0-51.2-42.666667-91.022222-93.866667-91.022223-51.2 0-93.866667 42.666667-93.866667 93.866667v483.555556c-11.377778 85.333333-82.488889 147.911111-167.822222 147.911111-48.355556 0-96.711111-19.911111-128-56.888889l-2.844444-5.688889-5.688889 5.688889c-31.288889 36.977778-79.644444 56.888889-128 56.888889-85.333333 0-159.288889-65.422222-167.822222-147.911111v-483.555556c0-19.911111 17.066667-36.977778 36.977777-36.977778s36.977778 17.066667 36.977778 36.977778v460.8c0 51.2 42.666667 93.866667 93.866667 93.866667 51.2 0 93.866667-42.666667 93.866667-93.866667v-460.8c0-19.911111 17.066667-36.977778 36.977777-36.977778s36.977778 17.066667 36.977778 36.977778v460.8c0 51.2 42.666667 93.866667 93.866667 93.866667 51.2 0 93.866667-42.666667 93.866666-93.866667v-460.8c0-93.866667 73.955556-170.666667 167.822223-170.666667z"  horiz-adv-x="1024" />

    
    <glyph glyph-name="shuipingzuo" unicode="&#58977;" d="M984.177778 142.222222c-2.844444 11.377778-8.533333 19.911111-19.911111 25.6l-216.177778 119.466667c-14.222222 8.533333-31.288889 8.533333-45.511111 2.844444l-193.422222-110.933333-193.422223 110.933333c-2.844444 0-19.911111 14.222222-45.511111 0l-213.333333-119.466666c-8.533333-5.688889-17.066667-14.222222-19.911111-25.6-2.844444-11.377778 0-22.755556 5.688889-31.288889 11.377778-19.911111 36.977778-25.6 56.888889-14.222222l193.422222 110.933333 187.733333-105.244445v2.844445l5.688889-2.844445c14.222222-8.533333 31.288889-8.533333 45.511111 0l193.422222 110.933334 193.422223-110.933334c19.911111-11.377778 45.511111-5.688889 56.888888 14.222223 11.377778 0 11.377778 11.377778 8.533334 22.755555zM964.266667 551.822222l-216.177778 119.466667c-14.222222 8.533333-31.288889 8.533333-45.511111 2.844444l-193.422222-110.933333-196.266667 108.088889c-14.222222 8.533333-31.288889 8.533333-45.511111 2.844444l-213.333334-119.466666c-8.533333-5.688889-17.066667-14.222222-19.911111-25.6-2.844444-11.377778 0-22.755556 5.688889-31.288889 11.377778-19.911111 36.977778-25.6 56.888889-14.222222l193.422222 110.933333 187.733334-105.244445 5.688889-2.844444c14.222222-8.533333 31.288889-8.533333 45.511111 0l193.422222 110.933333 193.422222-110.933333c19.911111-11.377778 45.511111-5.688889 56.888889 14.222222 5.688889 8.533333 5.688889 19.911111 2.844444 31.288889 5.688889 5.688889 0 14.222222-11.377777 19.911111z"  horiz-adv-x="1024" />

    
    <glyph glyph-name="siyecao" unicode="&#58886;" d="M494.940292 759.315415h34.119583v-119.418541h-34.119583zM512.000083 379.735052l-10.235875 7.676906C490.334148 395.941854 221.983626 598.953374 221.983626 742.255623c0 106.111904 77.110258 153.538124 153.538125 153.538124a149.955568 149.955568 0 0 0 136.478332-72.674712A149.955568 149.955568 0 0 0 648.478416 895.793747c76.427866 0 153.538124-47.426221 153.538124-153.538124 0-143.302249-268.350521-346.313769-279.780582-354.843665zM375.521751 861.674164c-55.103127 0-119.418541-31.219419-119.418541-119.418541 0-100.311574 175.886451-257.602853 255.896873-319.700494C592.010506 484.65277 767.896957 641.944049 767.896957 742.255623c0 88.199122-64.315414 119.418541-119.418541 119.418541-87.687329 0-119.418541-61.244652-119.418541-102.358749h-34.119583c0 41.114098-31.731212 102.358749-119.418541 102.358749zM494.940292 128.103126h34.119583v-119.418541h-34.119583zM648.478416-127.793747a149.955568 149.955568 0 0 0-136.478333 72.674712A149.955568 149.955568 0 0 0 375.521751-127.793747c-76.427866 0-153.538124 47.426221-153.538125 153.538124 0 143.302249 268.350521 346.313769 279.780582 354.843665l10.235875 7.676906 10.235875-7.676906C533.666018 372.058146 802.01654 169.046626 802.01654 25.744377c0-106.111904-77.110258-153.538124-153.538124-153.538124z m-119.418541 136.478332c0-41.114098 31.731212-102.358749 119.418541-102.358749 55.103127 0 119.418541 31.219419 119.418541 119.418541 0 100.311574-175.886451 257.602853-255.896874 319.700494C431.989661 283.34723 256.10321 126.055951 256.10321 25.744377c0-88.199122 64.315414-119.418541 119.418541-119.418541 87.687329 0 119.418541 61.244652 119.418541 102.358749zM767.896957 401.059792h34.119583v-34.119584h-34.119583zM836.136123 401.059792h51.179375v-34.119584h-51.179375zM870.255706 93.983543c-143.302249 0-346.313769 268.350521-354.843665 279.780582l-7.676906 10.235875 7.676906 10.235875C523.941937 405.665935 726.953457 674.016457 870.255706 674.016457c106.111904 0 153.538124-77.110258 153.538124-153.538124a149.955568 149.955568 0 0 0-72.674712-136.478333A149.955568 149.955568 0 0 0 1023.79383 247.521667c0-76.427866-47.426221-153.538124-153.538124-153.538124zM550.555212 384C612.652853 303.989578 769.944132 128.103126 870.255706 128.103126c88.199122 0 119.418541 64.315414 119.418541 119.418541 0 87.687329-61.244652 119.418541-102.358749 119.418541v34.119584c41.114098 0 102.358749 31.731212 102.358749 119.418541 0 55.103127-31.219419 119.418541-119.418541 119.418541-100.311574 0-257.602853-175.886451-319.700494-255.896874zM136.684669 401.059792h119.418541v-34.119584H136.684669zM153.74446 93.983543c-106.111904 0-153.538124 77.110258-153.538124 153.538124a149.955568 149.955568 0 0 0 72.674712 136.478333A149.955568 149.955568 0 0 0 0.206336 520.478333c0 76.427866 47.426221 153.538124 153.538124 153.538124 143.302249 0 346.313769-268.350521 354.843665-279.780582l7.676906-10.235875-7.676906-10.235875C500.058229 362.334065 297.046709 93.983543 153.74446 93.983543zM136.684669 401.059792v-34.119584c-41.114098 0-102.358749-31.731212-102.35875-119.418541 0-55.103127 31.219419-119.418541 119.418541-119.418541 100.311574 0 257.602853 175.886451 319.700494 255.896874C411.347313 464.010422 254.056035 639.896874 153.74446 639.896874c-88.199122 0-119.418541-64.315414-119.418541-119.418541 0-87.687329 61.244652-119.418541 102.35875-119.418541z"  horiz-adv-x="1024" />

    
    <glyph glyph-name="quxiao" unicode="&#58960;" d="M514.514337 436.17393L68.345934 881.5744C51.8354 898.468901 27.773535 901.668617 11.007023 885.030094c-16.638523-16.638523-13.438807-40.700388 3.199716-57.4669l445.912425-445.400471-442.072766-441.560811c-16.638523-16.766512-19.838239-40.700388-3.071727-57.4669 16.638523-16.638523 40.700388-13.438807 57.338911 3.199716l442.072766 441.560811L951.595546-108.801704c16.638523-16.638523 40.700388-19.838239 57.4669-3.199716 16.638523 16.638523 13.566796 40.700388-3.199716 57.338911L568.653532 382.034734 1009.830378 822.571637c16.638523 16.638523 19.838239 40.700388 3.199716 57.338911-16.766512 16.638523-40.700388 13.566796-57.594889-3.071727L514.514337 436.17393z"  horiz-adv-x="1024" />

    
    <glyph glyph-name="lianjie" unicode="&#58894;" d="M512 489.3c-12.9 0-23.5-10.5-23.5-23.5l-0.1-164.3c0-12.9 10.5-23.5 23.5-23.5 12.9 0 23.5 10.5 23.5 23.5V465.9c0.1 12.8-10.5 23.4-23.4 23.4z m65.9-450.2c0.1-25.9-39.7-32.8-65.7-32.9-25.9-0.1-65.7 6.9-65.7 32.9l-5.3 308.3c-28-16.3-60.4-43.7-60.4-78.4l0.1-229.9c0-51.9 55.5-101.3 107.3-101.3h46.9c51.9 0 108.4 49.5 108.4 101.3V269c0 34.7-33.5 62.1-61.5 78.4l-4.1-308.3zM535.2 829.9h-46.9c-51.9 0-107.3-49.5-107.3-101.3l-0.1-229.8c0-34.7 32.4-62.1 60.4-78.4l5.3 308.3c-0.1 25.9 39.7 32.8 65.7 32.9 25.9-0.1 65.7-6.9 65.7-32.9l4.2-308.3c28 16.3 61.5 43.7 61.5 78.4V728.7c-0.2 51.8-56.6 101.2-108.5 101.2z m0 0"  horiz-adv-x="1024" />

    
    <glyph glyph-name="chunvzuo" unicode="&#58917;" d="M682.667 56.889l2.844 2.844 2.845-2.844c14.222-14.222 62.577-17.067 79.644-19.911h156.444c22.756 0 39.823 17.066 39.823 39.822 0 22.756-17.067 39.822-39.823 39.822H768c-5.689 0-11.378 0-19.911 2.845l-8.533 2.844 5.688 5.689c19.912 25.6 36.978 51.2 54.045 82.489 105.244 184.889 93.867 287.289 93.867 290.133 0 85.334-65.423 150.756-150.756 150.756-19.911 0-42.667-5.69-65.422-14.222l-8.534-2.845-2.844 68.267C654.222 787.91 583.111 853.333 494.933 853.333c-51.2 0-96.71-19.91-128-56.889l-2.844-5.688-5.689 5.688c-34.133 36.978-79.644 56.89-128 56.89-88.178 0-162.133-65.423-170.667-150.756v-486.4c0-22.756 17.067-39.822 39.823-39.822s39.822 17.066 39.822 39.822V682.667c0 51.2 42.666 93.866 93.866 93.866s93.867-42.666 93.867-93.866v-466.49c0-22.755 17.067-39.821 39.822-39.821s39.823 17.066 39.823 39.822V682.667c0 51.2 42.666 93.866 93.866 93.866s93.867-42.666 93.867-93.866v-466.49c0-31.288 8.533-65.421 28.444-93.866l2.845-2.844-2.845-2.845c-51.2-45.51-102.4-79.644-156.444-102.4-2.845-2.844-8.533-2.844-11.378-5.689-8.533-2.844-17.067-5.689-22.755-14.222-11.378-19.911-8.534-45.511 11.377-56.889s36.978-2.844 36.978-2.844C551.822-42.667 620.09 0 682.667 56.888z m-8.534 440.889c0 39.822 31.29 71.11 71.111 71.11 56.89 0 65.423-48.355 65.423-48.355-2.845-93.866-28.445-187.733-76.8-275.91-14.223-25.6-31.29-48.356-48.356-68.267l-8.533-8.534-2.845 11.378c-2.844 11.378-5.689 22.756-5.689 31.289V497.778z"  horiz-adv-x="1024" />

    
    <glyph glyph-name="shuangyuzuo" unicode="&#58918;" d="M832 341.333H706.133c8.534-106.666 46.934-202.666 104.534-283.733C821.333 44.8 832 32 832 17.067c0-23.467-21.333-40.534-44.8-40.534-19.2 0-34.133 14.934-34.133 14.934-76.8 98.133-123.734 217.6-132.267 347.733H403.2c-8.533-130.133-57.6-251.733-132.267-347.733 0 0-17.066-14.934-29.866-14.934-23.467 0-46.934 19.2-46.934 42.667 0 14.933 6.4 23.467 19.2 38.4 59.734 81.067 98.134 177.067 104.534 283.733H192c-23.467 0-42.667 19.2-42.667 42.667s19.2 42.667 42.667 42.667h125.867c-8.534 106.666-46.934 202.666-104.534 283.733-10.666 12.8-17.066 27.733-14.933 42.667 2.133 25.6 14.933 34.133 36.267 36.266 19.2 2.134 36.266-14.933 36.266-14.933 76.8-98.133 123.734-217.6 132.267-347.733h217.6C629.333 556.8 678.4 678.4 753.067 774.4c0 0 10.666 17.067 36.266 14.933 21.334-2.133 40.534-12.8 40.534-36.266 0-14.934-6.4-29.867-17.067-42.667-59.733-81.067-98.133-177.067-104.533-283.733H832c23.467 0 42.667-19.2 42.667-42.667s-19.2-42.667-42.667-42.667z"  horiz-adv-x="1024" />

    
    <glyph glyph-name="fenye-shangyiye" unicode="&#59042;" d="M254.890667 384L702.890667 832l60.416-60.330667-448-448L254.890667 384z m60.842666 60.757333l453.290667-453.376-60.330667-60.330666-453.376 453.376 60.416 60.330666z"  horiz-adv-x="1024" />

    
    <glyph glyph-name="xinaixin" unicode="&#58889;" d="M969.04 722.632a289.66 289.66 0 0 1-397.153 8.732 289.66 289.66 0 0 1-397.153-8.732 283.637 283.637 0 0 1 0-403.777L507.451-10.85a90.33 90.33 0 0 1 128.872 0L969.04 318.554a283.637 283.637 0 0 1 0 404.078z m-43.058-361.321L593.265 31.605a30.11 30.11 0 0 0-42.756 0L217.49 361.31a224.02 224.02 0 0 0 0 318.866 228.536 228.536 0 0 0 313.446 5.119l40.95-35.23 40.649 35.23a228.536 228.536 0 0 0 313.446-6.625 224.02 224.02 0 0 0 0-317.36zM368.644 655.186a127.968 127.968 0 0 1-127.968-127.969 15.055 15.055 0 0 1 30.11 0 97.858 97.858 0 0 0 97.858 97.858 15.055 15.055 0 0 1 0 30.11z"  horiz-adv-x="1170" />

    
    <glyph glyph-name="xiala" unicode="&#58903;" d="M755.342 462.11L537.778 224.2a34.238 34.238 0 0 0-25.718-11.637 34.238 34.238 0 0 0-25.72 11.637L268.777 462.11c-10.621 11.218-13.903 27.568-8.414 42.009s18.737 24.525 34.133 25.897h434.949c15.455-1.313 28.761-11.337 34.251-25.838 5.55-14.5 2.268-30.79-8.354-42.068z"  horiz-adv-x="1024" />

    
    <glyph glyph-name="shizizuo" unicode="&#59194;" d="M906.24 184.32c-18.432 7.168-39.424-2.048-46.08-20.48-0.512-1.024-43.52-109.056-114.176-109.056h-2.56c-31.744 1.024-54.272 9.728-68.608 26.624-21.504 25.6-29.184 73.728-21.504 139.264 1.024 8.192 3.584 22.528 6.656 40.448 20.992 118.784 64.512 366.08-35.84 478.72-36.352 40.96-86.528 59.904-148.992 56.32-61.44-3.584-109.568-27.648-142.336-71.168-53.248-71.168-48.64-176.128-41.472-232.448-79.36-18.944-138.24-90.112-138.24-175.104 0-99.328 80.896-179.712 179.712-179.712s179.712 80.896 179.712 179.712c0 89.088-64.512 162.816-149.504 177.152-2.048 14.848-4.096 34.816-4.608 57.344-0.512 39.424 4.608 93.696 31.744 130.048 19.456 26.112 48.64 39.936 88.576 42.496 40.448 2.56 70.144-8.192 91.648-32.256 77.312-87.04 34.816-328.192 18.944-418.816-3.584-18.944-6.144-33.792-7.168-44.032-10.752-88.576 2.048-152.576 37.888-194.56 28.16-32.768 68.608-50.176 120.32-51.712h5.12c120.32 0 178.688 148.992 181.248 155.136 7.168 18.432-2.048 39.424-20.48 46.08z m-465.408 133.12c0-59.904-48.64-108.032-108.032-108.032s-108.032 48.64-108.032 108.032S272.896 425.472 332.8 425.472s108.032-48.128 108.032-108.032z"  horiz-adv-x="1024" />

    
    <glyph glyph-name="hengxian2-copy" unicode="&#58887;" d="M581.279 1821.9l0-2875.8-34.2627 0L547.016 1821.9Z"  horiz-adv-x="1024" />

    
    <glyph glyph-name="right" unicode="&#58888;" d="M433.89 627.342L671.8 409.778a34.238 34.238 0 0 0 11.637-25.718A34.238 34.238 0 0 0 671.8 358.34000000000003L433.89 140.77700000000004c-11.218-10.621-27.56799999-13.903-42.009-8.414s-24.525 18.737-25.897 34.133l0 434.949c1.313 15.455 11.337 28.761 25.838 34.251 14.5 5.55 30.79 2.268 42.068-8.354z"  horiz-adv-x="1024" />

    
    <glyph glyph-name="baiyangzuo" unicode="&#58905;" d="M736.6656 794.3168c-89.7024 0-172.032-44.3392-221.5936-119.0912-49.664 74.752-131.9936 119.0912-221.696 119.0912-146.7392 0-266.1376-119.3984-266.1376-266.1376 0-77.312 33.5872-150.6304 92.0576-201.216 8.6016-7.4752 19.5584-11.5712 30.9248-11.5712a47.33952 47.33952 0 0 1 31.0272 83.1488c-37.6832 32.6656-59.2896 79.872-59.2896 129.7408 0 73.8304 47.104 139.1616 117.0432 162.6112 5.0176 1.536 23.1424 6.7584 46.8992 8.4992l2.8672 0.2048c1.2288 0.1024 2.56 0.2048 4.8128 0.2048 4.608 0 9.1136-0.2048 13.6192-0.512 42.0864-3.3792 81.3056-22.2208 110.2848-52.736 23.4496-31.0272 36.864-75.6736 39.7312-132.1984V23.552c0-31.9488 26.0096-57.856 57.856-57.856s57.856 26.0096 57.856 57.856V490.9056c0.1024 18.7392 1.3312 36.352 3.584 53.248 11.8784 46.6944 36.864 108.8512 88.3712 139.5712 21.6064 10.0352 44.6464 15.36 68.3008 15.7696 14.0288-0.1024 28.3648-1.6384 42.2912-4.4032 78.0288-18.2272 132.608-86.8352 132.608-166.8096 0-49.7664-21.6064-97.0752-59.2896-129.7408a47.33952 47.33952 0 0 1 61.952-71.5776 266.07616 266.07616 0 0 1 92.0576 201.216C1002.7008 674.9184 883.4048 794.3168 736.6656 794.3168z"  horiz-adv-x="1024" />

    
    <glyph glyph-name="shangla" unicode="&#59023;" d="M852.736 256.213333L512 596.949333l-340.736-340.736 85.162667-85.162666L512 426.581333l255.573333-255.530666z"  horiz-adv-x="1024" />

    
    <glyph glyph-name="xiala1" unicode="&#58913;" d="M561.873 170.835c-11.262-11.262-26.545-21.72-41.025-18.502-14.479-2.413-28.154 8.849-39.415 18.502L133.129 520.748c-17.697 17.696-17.697 46.655 0 64.352s46.655 17.696 64.351 0l324.173-333.021 324.977 333.02c17.696 17.697 46.655 17.697 64.351 0s17.697-46.655 0-64.351L561.873 170.835z"  horiz-adv-x="1024" />

    
    <glyph glyph-name="houxiao" unicode="&#58976;" d="M779.578 539.779c25.02 6.636 46.797 15.788 58.808 29.591 0 0 11.147 7.572-2.23 24.865-2.755 3.564-6.459 5.29-10.602 5.787-17.808 17.734-33.35 49.652-44.096 75.983-1.398 5.845-6.318 27.298-6.318 39.816 0 14.602-57.68 55.126-112.853 42.159-55.172-12.971-129.574-55.123-126.23-119.984 3.35-64.849 22.57-73.766 36.78-81.878 0 0-281.719-27.562-296.765-26.748 0 0-12.537-4.05-9.198-17.026 3.345-12.968 32.605-110.249 17.555-161.32 0 0-16.716-55.131-27.581-57.56 0 0-50.997 30.807-107.007 0-56.007-30.809-66.875-138.632-11.7-171.052 55.17-32.425 150.473-1.627 140.44 51.067-10.03 52.7-69.383 55.128-89.451 42.16 0 0-9.197-13.785 22.567-24.321 31.771-10.54 27.59-53.504-20.895-51.081 0 0-71.893 15.408-20.063 108.633 0 0 76.905 50.258 115.36-19.454 38.45-69.715 22.122-214.741 100.316-226.183 55.427-8.108 76.905 28.369 101.984 40.527 25.083 12.171 125.398-35.659 166.356 120.801l9.195-1.621s13.922-97.018 104.495-68.911c41.797 12.967 70.226 48.638 3.346 56.749-66.88 8.107-43.78 15.163-28.423 20.268 0 0 71.055-8.918 59.356 45.396-11.71 54.313-105.334 121.604-162.176 98.099-56.845-23.511-106.173-41.352-121.217-75.397-1.402-3.172-4.186-5.654-8.082-7.55-7.53 35.858-14.618 129.837 95.651 192.482l4.104-1.703s114.952 31.356 200.71-74.578l8.84 8.645-14.49 139.432s102.546-33.509 105.887 38.916c-0.002-0.001-103.525-24.05-132.373 4.991z m-32.53 100.268c4.97 3.521 9.428 6.037 11.784 4.523 3.45-2.216 6.66-5.26 9.627-8.838-20.177-11.724-23.082-4.922-21.411 4.315z m-48.817-2.05s23.434 17.942 49.832 28.662c-10.275-16.307-22.25-38.929-22.25-38.929a0.02 0.02 0 0 0 0.007-0.001l-0.003-0.003 60.437-45.841c-2.174-7.594-9.126-23.762-28.12-17.91-24.522 7.56-18.95 46.461-59.073 54.569 0.01 0-15.774 9.194-0.83 19.453zM283.31 280.759s26.217 39.045 51.194 52.221c-6.093-24.894-8.805-52.027-6.374-81.199l-44.82 28.978z m64.884 93.278c-6.977 1.138-18.417 5.86-19.188 24.558-1.115 27.024-25.64 112.412 104.773 97.282l3.248-1.347c-25.47-22.564-64.808-63.857-88.833-120.493z m341.948 121.835c-23.408 5.405-65.764-5.401-72.45-12.963 0 0-1.113 27.024 49.045 36.751 25.42 4.928 61.432 8.748 94.69 15.817l-2.186-67.703s-45.693 22.693-69.099 28.098z"  horiz-adv-x="1024" />

    
    <glyph glyph-name="longxiao" unicode="&#58978;" d="M673.043 424.405c-26.54-2.204-74.533-28.677-99.943-27.574-18.24 0.792-35.309 32.535-42.66 54.067 18.302-0.084 40.685 6.481 47.435 3.785 11.787-4.709 32.68-26.094 37.502-31.096 4.822-5.007 56.787-3.957 41.786 38.943-5.72 16.36-5.82 29.36-2.58 38.763 8.489-7.89 15.643-16.238 15.643-16.238l7.903 20.408 42.347-12.683-5.897 17.589c6.506-0.305 11.061 1.486 11.96 6.829l12.575-5.669c0 14.128-8.406 28.804-20.888 39.687 8.214 1.512 20.106 4.221 22.512 7.579 3.712 5.18 13.18 25.219-10.544 29.173 7.454 4.973 13.698 10.74 18.36 15.654 4.862-0.721 13.63-0.833 16.291 6.968 3.75 10.986-5.482 18.834-19.617 23.02 0 0 51.762 61.735 39.975 71.152 0 0-18.751 9.417-49.287-24.59 0 0-13.394 4.709-19.288 0-5.892-4.708-19.285-17.265-25.714-36.622l-31.072 8.371s50.36 57.026 50.36 72.199c0 15.172-28.932 24.589-60.54-23.543 0 0-6.963 0-9.107 15.172-1.195 8.465-7.894 4.223-14.98-10.718-24.408 90.799-116.844 97.651-116.844 97.651l15.249-57.91-48.627-1.655s13.046-54.594 7.965-62.867c-5.085-8.268-94.863-3.306-57.596-13.23a93.716 93.716 0 0 0 6.906-2.142c33.065-11.652 52.38-39.218 52.38-39.218 27.11-62.854-94.863-87.673-188.034-94.295-93.167-6.613-81.306-57.896-81.306-57.896l22.02 1.656 11.858-26.47 15.247 21.512 22.023-21.512c6.772 18.201 37.268 41.36 37.268 41.36 6.777-16.542 40.657-54.59 40.657-54.59 8.467-87.673 81.31-129.033 81.31-129.033-22.023-13.23-22.023-79.408-22.023-79.408-81.043-42.431-44.043-87.674-44.043-87.674-3.39 8.266 5.085 46.313 18.6 23.154 13.524-23.154 22.058-13.235 22.058-13.235 15.247 33.093 10.166 14.896 35.577 8.278 25.405-6.613 12.358 57.896 12.358 57.896-2.88 26.47 48.627 87.682 82.504 43.012 33.881-44.667 0-107.525-98.253-153.853-98.253-46.313-28.8-74.437-28.8-74.437-72.839-99.258 33.884-43.012 33.884-43.012 16.943-71.136 67.757 31.431 67.757 31.431 38.965-62.854 66.069 51.284 66.069 51.284 44.043-24.81 33.881 82.711 33.881 82.711 52.515 29.781 55.9 130.694 47.43 180.316-8.468 49.634 14.687 63.976 14.687 63.976l36.701-19.856v33.083l32.75-13.26-7.91 40.285 24.846 10.476c-75.098 55.698-101.08-23.154-101.08-23.154z m-7.307 154.549l-0.775 0.277c11.102 4.431 18.938-0.3 23.35-4.636-3.915-2.605-7.173-4.956-9.568-6.418a49.372 49.372 0 0 1-10.891-0.626c-5.635 1.605-10.374 5.283-2.116 11.403z m-48.268 12.966c11.803-0.068 15.755-5.631 16.96-10.454-8.255-6.446-20.66-14.191-20.66-2.512 0 5.419 1.39 9.659 3.7 12.966z"  horiz-adv-x="1024" />

    
    <glyph glyph-name="shexiao" unicode="&#58979;" d="M785.227 291.458c-16.262 6.806-31.921 12.694-47.024 17.726 15.721 59.547 25.869 127.997 1.514 197.946-45.506 130.715-224.873 264.055-337.31 273.203C289.97 789.475 227.06 697.98 227.06 697.98l79.601-66.912a110.23 110.23 0 0 0-4.65-1.056c-38.817-7.839-74.962 10.454-74.962 10.454-53.541 15.688-70.934-3.924-70.934-3.924 100.387-18.298-12.05-45.747-12.05-45.747 49.53-14.378 99.052 20.909 99.052 20.909l69.61 5.228 17.397-27.445-77.635-58.827c34.81-37.903 119.128-70.58 168.657-43.135 49.534 27.453 155.272 74.513 198.109-5.228 27.275-50.785 20.892-79.302-3.245-150.043-131.784 2.183-208.194-84.238-273.835-202.881-64.078-115.817-187.393-32.685-187.393-32.685s45.51-60.131 149.914-77.121C409.1 2.584 445.24 145.059 502.8 197.332c21.227 19.278 48.641 28.242 78.349 30.772a2336.74 2336.74 0 0 1-20.793-69.984c-61.568-219.606 93.694-205.218 199.443-194.759 105.747 10.455 245.33 236.065 25.429 328.097z m-381.49 366.008c-8.228 0.917-15.49 0.894-22.109 0.212-3.618 16.799 3.321 38.626 30.14 37.69 37.48-1.306 38.819-43.135-8.031-37.902z m361.408-567.312c-40.153-18.299-68.26 16.984-61.568 88.876 0.91 9.777 3.09 20.555 6.05 32.193a832.098 832.098 0 0 0 24.735-7.35c70.941-22.217 70.941-95.418 30.783-113.719z"  horiz-adv-x="1024" />

    
    <glyph glyph-name="shuxiao" unicode="&#58980;" d="M675.358 72.083s175.492 254.461-81.535 392.942c0 0-71.51 18.784-74.447 0-2.935-18.777 124.082-195.211 63.808-269.843 0 0.009-83.308-1.925-122.304 79.437 0 0-33.684 50.199-81.544 12.116-47.855-38.082-84.644-77.9-75.994-98.67 8.64-20.772 51.18-93.478 38.777-98.668-12.413-5.193-104.584 1.728-127.626-12.121-23.04-13.849-40.77-50.194 123.195-64.052 163.968-13.849 117.876 50.203 133.831 81.363 15.95 31.156 40.77 22.498 46.082-3.463 5.326-25.971-5.124-78.304 65.685-79.829 70.806-1.527 150.576-24.438 177.158 0 26.59 24.439-56.72 60.788-85.086 60.788z m235.76 247.542c-56.722 154.064-131.175 135.024-99.266 193.88-0.003-0.005 95.717 110.78 63.811 117.707 0 0-165.15-72.701-110.055-174.834 55.103-102.134 187.361-144.809 72.834-260.583-19.635-19.842-95.723-23.307-95.723-23.307s-33.678-34.626 10.639-38.081c44.312-3.465 214.485 31.155 157.76 185.218zM329.704 657.171c38.997-20.769 72.68 1.737 83.318 24.238 10.63 22.5 19.498 55.391 0 72.704-51.43 45.644-92.181 0-92.181 0-19.494-27.696-30.131-76.169 8.863-96.942z m-33.46-240.605s-46.3-90.014-65.807-115.982c-19.494-25.961-37.223-95.203-8.86-103.861 28.366-8.657 77.996 45.004 122.308 95.205 44.313 50.202 88.63 50.202 122.304 6.929 33.68-43.272 124.08-150.6 108.129-31.161-15.961 119.438-63.816 174.833-79.771 200.803 0 0 16.596 74.983 3.547 105.243a79.895 79.895 0 0 1-2.089 4.454c8.515-2.027 18.035-3.437 28.681-4.107 109.9-6.924 111.677 91.75 99.265 119.438-12.403 27.697-38.996 50.203-99.265 55.395 0 0-58.495 8.614-79.77-37.239-10.613-22.878-18.133-55.456-9.357-83.22-36.479 15.729-95.251 30.585-165.235 9.673-86.398-25.815-102.435-61.241-104.762-80.968-7.128-0.353-12.867-1.031-16.663-2.121-30.131-8.657-49.63-25.97-31.906-45.006 17.724-19.038 42.54-20.765 62.037-19.038 0.004-0.001 42.981-64.051 117.214-74.437z m35.235 164.099c9.863-5.156 17.894-11.694 25.005-17.641-6.637-5.579-14.861-11.162-25.005-16.635 0 0-15.902 1.806-38.438 3.958 9.091 18.703 22.914 38.432 38.438 30.318z"  horiz-adv-x="1024" />

    
    <glyph glyph-name="zhuxiao" unicode="&#58981;" d="M557.763 205.215c-10.343-23.568-3.445-38.678 11.2-41.644 14.652-2.966 49.122 34.067 26.716 72.783 0 0-27.576-7.573-37.916-31.139z m358.236 227.519c-17.808 33.093-31.6 5.045-33.894 2.237 0 0-5.752-12.905 10.337-7.295 16.099 5.607 10.341-23.568-6.895-24.13 0 0-2.288 21.323-37.34 49.941-35.056 28.618-87.913 44.338-152.837 45.458-64.94 1.123-133.307 0.004-133.307 0.004s-22.407-40.4 0-63.965c22.41-23.564 49.989-72.4 49.989-121.211 0-48.808-3.446-134.654 12.067-143.076 15.522-8.41 37.928-26.926 68.954 70.708l53.431-3.365s0-67.343 34.478-63.966c34.476 3.365 10.339 43.761 18.959 67.331 8.62 23.561 12.074-43.766 13.789-53.868 1.728-10.094 29.3-15.904 39.647 7.194 10.342 23.107-6.871 61.375 31.025 119.042 11.492 17.481 8.04 64.526 4.589 74.626 0-0.001 44.82 11.229 27.008 44.335zM593.094 291.902c20.684 101.001-53.438 154.865-53.438 154.865-10.343 127.931-65.503 144.758-65.503 144.758 3.454 23.007 2.299 53.306-18.394 57.79-20.68 4.495-51.702-42.081-51.702-42.081l-140.762 2.242c-7.47 26.938-21.84 25.249-21.84 25.249-36.191 5.615-22.41-57.228-22.41-57.228l0.525-0.051c0.316-6.191 1.336-13.078 3.426-20.593-34.962-47.617-24.814-139.52-43.583-158.908-20.106-20.768-81.6-66.435-75.274-106.046 7.078-44.328 38.537-69.244 57.201-80.373 27.053-24.371 70.746-47.756 141.31-59.574 68.815-11.531 116.866-3.522 150.57 11.918 56.892 17.128 124.726 54.076 139.874 128.032z m-163.454-9.241a52.163 52.163 0 0 0-11.02 5.432c-3.769 12.963-6.38 49.6 14.172 43.413 42.662-12.857 8.775-40.374-3.152-48.845z m-6.623 242.087c7.467 0 12.446-9.959 15.767-23.4-2.256-13.503-7.467-26.518-19.213-25.971-5.075 0.238-9.053 5.226-12.179 12.939 0.295 0.343 0.35 0.705 0.109 1.089-4.594 7.299-7.47 35.343 15.516 35.343z m-115.486 3.373c7.287-2.911 8.655-17.574 8.507-29.47-8.581-25.091-20.332-42.283-32.296-6.411-0.885 23.537 12.387 40.439 23.789 35.881z m-51.213-259.732c-9.592 17.593-19.859 59.36 12.73 56.62 33.325-2.812 18.377-37.037 18.377-37.037l0.277-0.003c-8.059-11.66-18.677-21.189-31.384-19.58z"  horiz-adv-x="1024" />

    
    <glyph glyph-name="maxiao" unicode="&#58982;" d="M455.225 453.765s-1.452 22.676-23.223 26.927c0 0 0 22.677 10.165 22.677 10.158 0-34.831 26.924-53.695 26.924-18.867 0 2.9 28.349 14.51 28.349s-36.278 32.597-55.15 31.178c-18.864-1.418-1.449 24.091 10.158 26.924 11.606 2.84-50.791 31.164-60.952 29.757 0-0.001 30.478-199.82 158.187-192.736zM894.95 133.472c-26.122 7.088-47.894-2.828-49.343 17.008-1.456 19.844-58.048 106.295-72.566 113.382-14.511 7.081-23.217 79.361-49.34 127.547-26.125 48.186-119.003 35.433-268.479 39.68-149.478 4.254-187.21 246.601-187.21 246.601-1.054 5.999-10.158 7.559-10.162 7.555-12.091-3.302-11.61-35.431-13.543-38.698-1.273-2.146-16.983-12.519-27.59-19.37-48.653-16.755-73.792-40.011-86.768-59.904-24.87-24.953-31.165-83.032 0.192-89.417 34.832-7.084 62.405 34.018 62.405 34.018 24.669-5.669 58.051 11.338 58.051 11.338 36.287-7.087 34.832-128.968 34.832-128.968-11.614-18.429-42.089-134.64-42.089-134.64-31.926-22.674-117.548-100.619-124.805-110.539-7.253-9.928-29.022-39.685 0-52.437 57.012-25.062 88.526 65.188 87.078 72.273-1.452 7.087 24.67 8.505 24.67 8.505 72.558 8.501 133.514 87.869 133.514 87.869 62.398-48.186 235.097-5.672 235.097-5.672C681.613 201.502 770.14 193 770.14 193c18.867-59.528 104.492-133.223 124.81-130.387 20.311 2.837 26.113 63.772 0 70.859zM237.05 577.54c-7.987-9.178-24.634 4.367-30.904 11.647 2.928 5.478 6.585 9.298 10.386 11.948 1.203-0.1 2.549-0.246 4.074-0.453 17.414-2.36 24.67-13.695 16.445-23.142z m589.684-184.721c4.833-4.72 18.385-22.675 41.604-27.399 23.224-4.722 22.251 32.126 3.874 38.737-18.374 6.611-6.767 32.124-13.55 39.981-6.764 7.857-51.269-8.799-59.007 2.539-7.735 11.334-4.842 20.789-26.122 6.901-21.277-13.88-60.955-25.796-60.955-25.796-3.867-48.185 109.328-30.236 114.156-34.963z"  horiz-adv-x="1024" />

    
    <glyph glyph-name="jixiao" unicode="&#58983;" d="M182.223 457.847c8.925-9.815 24.686-25.175 53.585 0 28.9 25.174 58.063 3.269 59.176 7.625 1.116 4.356 3.351 25.082 33.495 19.622 30.144-5.455 35.726 32.715 35.726 32.715 16.75 3.265 27.91 43.064 27.91 43.064-16.746 1.625-88.198 94.091-88.198 94.091l-3.351 31.842c-20.098 13.088-88.484 6.538-88.484 6.538-0.128-0.067-0.174-0.201-0.154-0.388-7.783-3.162-31.269-19.481-44.388-28.791l-37.793 7.378 17.863-32.703-16.747-23.99s24.563 6.546 36.84 5.451c12.289-1.091 30.148-27.26 30.148-27.26-31.262 14.167-49.125 10.082-49.125 10.082-70.343-46.623 3.351-36.25 15.63-38.703 12.28-2.453 3.347-16.079 3.347-16.079-72.57-35.984-39.078-114.486-25.675-114.486 13.399 0.001 31.266 33.798 40.195 23.992z m61.675 198.188c-6.334-3.65-15.246-4.542-24.723-3.965-2.502 7.445 6.624 13.186 14.49 16.63 6.302-6.592 11.261-12.075 10.233-12.665z m51.082 51.485l20.937 40.158-34.331-16.439L264 762.306l-21.77-31.067-30.148 16.439 10.886-40.158z m581.963-116.127c-69.503 10.632-163.287 6.539-200.13-78.501 0.012 0.008 9.218 127.574 140.687 132.479 0 0-169.147 71.968-189.248-178.267l-177.52 32.166-53.593 33.252-31.82-73.592v-14.72h25.12s28.464-143.924 175.841-55.606l8.371-9.274s-75.358-88.861-197.614 10.906c0 0-9.211 22.9-4.187 42.523 0 0-25.957-8.179-18.422 25.344 0 0-26.801 14.725-49.406-11.444 0 0-30.984 8.175-63.64-19.626 0 0-66.152 17.174-76.203-6.542-10.05-23.707-15.905-63.78 35.168-121.027 51.082-57.239 107.183-157 174.174-92.402 0 0 51.918-101.401 149.89 17.17 0 0 102.155-19.623 169.146 224.062 0 0 93.785 50.705 145.703-11.456 51.913-62.145 44.386-134.104 39.355-142.278-5.023-8.183 56.94 64.597 28.473 132.471-28.473 67.875-159.937 99.766-217.713 56.427 0 0 65.316 80.955 139.839 68.687 74.522-12.264 101.32-44.15 104.667-62.148-0.002-0.005 12.56 90.769-56.938 101.396zM450.17 149.273l-27.91 4.373-23.999-66.517c-22.887 0-65.32-7.634-56.386-20.722 8.937-13.08 58.063 10.91 35.731-7.633-22.324-18.527-34.605-55.599-18.977-54.512 15.629 1.087 41.309 50.155 50.238 55.599 8.933 5.459 29.59-16.347 29.59-16.347-3.907 14.168 0 83.958 0 83.958h16.187c-11.17 8.729-4.474 21.801-4.474 21.801z m-107.18 6.546c-11.168 8.726-4.468 21.801-4.468 21.801l-27.909 4.364-24.004-66.512c-22.89 0-65.32-7.63-56.39-20.714 8.938-13.08 58.063 10.901 35.734-7.629-22.331-18.539-34.613-55.607-18.985-54.523 15.634 1.086 41.313 50.159 50.246 55.605 8.933 5.452 29.59-16.356 29.59-16.356-3.911 14.171 0 83.964 0 83.964h16.187z"  horiz-adv-x="1024" />

    
    <glyph glyph-name="gouxiao" unicode="&#58984;" d="M345.712 426.773l-16.838-70.654c74.32 1.946 106.04 19.359 218.018 108.401 111.99 89.029 98.112 241.945 98.112 241.945 34.693 8.709 56.495 33.879 56.495 33.879-86.229 88.063-133.791 0-133.791 0h-19.822c-54.51 29.995-152.619 13.548-152.619 13.548-14.868 86.131-111.665 17.414-111.665 17.414 3.31-29.69 42.958-24.515 42.963-24.515 0.013-0.022 0.035-0.048 0.048-0.07-5.976-77.29-32.165-114.866-57.284-133.093-28.629 2.867-48.479 5.737-48.479 5.737-13.214 45.49-42.616 39.684-42.616 39.684-47.565-3.869-49.549-128.722 0-186.791 49.549-58.067 167.478-45.485 167.478-45.485zM445.31 647.92c0.735 15.481 7.862 22.595 16.844 25.447 0.982-0.581 1.947-1.154 2.876-1.716 11.46-6.939 10.838-34.543 10.838-34.543-1.749-7.785-8.511-13.662-18.763-18.026-7.58 4.177-12.557 12.739-11.795 28.838z m-95.632 12.095c13.874 8.226 26.264 7.26 26.264-28.063 0-12.1-9.653-19.43-22.345-23.838a767.955 767.955 0 0 0-4.544 0.118c-5.733 16.29-10.084 45.428 0.625 51.783z m-33.032-251.314l-67.384 5.169s-23.785-33.556-25.117-54.203c-1.319-20.635-11.886-72.257 42.286-54.196 54.173 18.074 50.215 103.23 50.215 103.23z m276.166 73.557s-73.996-99.359-210.098-143.238c0 0-62.106-141.939-76.636-180.658-14.54-38.707-39.643-103.236-13.213-125.169 26.42-21.938 101.656 98.072 128.79 167.757l15.396-10.33s-59.617-101.933-50.371-140.648c9.246-38.716 46.532-74.253 96.448 56.772l21.146 55.485s9.242-68.381 73.991-100.638c0 0 26.434 134.187 130.817 98.052 0 0-107.031 0.004-101.738-105.804 0 0-89.852-16.845-89.852-39.388 0-22.55 5.278-51.308 265.6-17.389 79.28 10.319 40.952 149.674 13.207 193.551-27.753 43.884-183.668 205.184-203.487 291.645zM904.649 299.02c-29.08-30.975-113.634-69.683-113.634-69.683 26.807-10.535 34.355-65.81 34.355-65.81 13.813-3.146 22.46 0 22.46 0 81.931 37.423 56.819 135.493 56.819 135.493z"  horiz-adv-x="1024" />

    
    <glyph glyph-name="huxiao" unicode="&#58985;" d="M199.64 251.445L339.84 392.471s57.485-26.014 61.693-49.292c4.205-23.275 47.67-76.677 51.873-8.213l7.014 21.906-28.042-9.98s-49.26 44.842 1.403 59.271c33.651 9.586 49.776-41.078 57.485-49.291 7.714-8.218-19.625-28.752-19.625-28.752s-13.39-28.752 20.996-17.8c34.382 10.954 74.01 37.189 31.58 102.691-5.454 8.417-10.449 15.232-15.016 20.719-9.831 19.551-28.94 52.95-53.333 73.071a230.1 230.1 0 0 1-39.406 26.164c12.617 4.663 26.154 9.354 36.005 11.946 24.302 6.391 10.289 29.207-24.298 33.772-22.461 2.965-41.37-16.014-51.87-29.688-23.03 6.41-48.082 8.667-73.955 4.021-60.987-10.958-114.973-62.303-141.962-109.882s-49.777-123.915-33.305-186.557c16.48-62.64 22.088-53.057 16.48-62.64 0 0-56.089-15.063-14.019-56.141 0 0 19.628 52.031 23.834-12.321 0 0 44.864 47.919 47.673 6.845 0 0 40.66 19.168 56.078 16.431-0.002 0.002-51.877 43.817-57.482 102.694z m250.266 215.993c0 0.671 9.742-12.705 16.487-22.046 0.113-1.553 1.03-16.44-5.623-12.868-7.012 3.769-11.214 7.874-11.214 7.874s0.35 26.016 0.35 27.04zM143.085 193.136l-0.02-0.032 0.02 0.032z m-0.547-0.935l-1.148-1.963 1.148 1.963z m-1.242-2.125z m163.488 150.401s67.299-96.787 86.002-123.265v-11.867s-32.72 10.868-37.396-8.257c-4.67-19.126-6.544-37.386 5.611-40.122l23.37 20.996 8.414-27.383 26.165 23.732 15.89-10.039s51.406 22.817 55.15 37.425L339.37 376.955l-34.587-36.478z m252.373 41.95c0.931-23.728-27.105-71.101-27.097-71.097-71.336-15.315-61.694-73.119-61.694-73.119l19.631 5.956 5.607-17.824 27.111 22.822 13.087-12.782 23.36 11.867v32.856c42.064 12.778 47.674 59.37 47.674 59.37l40.19 51.083c-48.61 14.605-87.869-9.132-87.869-9.132z m366.411-111.355c-5.605 31.947-29.912 91.277-32.715 118.663-2.802 27.383-71.978 57.509-67.299 0 0 0-26.167 72.246-51.408 83.133-25.237 10.886-130.862 43.746-176.665 43.746-45.797 0 89.732 78.235 160.769 48.703 71.04-29.532 71.04-63.174 34.585-92.449l29.906-32.013s67.309 63.627 26.184 124.462c-41.131 60.838-132.733 51.708-208.448 27.062-75.712-24.646-80.384-51.118-91.6-62.068l-75.712 5.474c0-0.006 48.136-37.886 79.457-128.709 0 0 134.59 7.679 169.177-10.762 34.582-18.448 85.985-75.042 81.317-105.162 0 0-80.376-24.645-34.58-74.851 0 0 0.939 28.336 22.43 27.862 0 0 2.454-28.777 12.451-36.991 0 0 16.523 29.211 27.741 30.126 0 0 5.606-34.687 14.957-34.687 0 0 3.742 27.382 17.762 27.382 14.024 0 67.3 9.129 61.691 41.079zM181.401 499.614s-34.887 0.949-39.255 51.211c-4.206 48.397 1.402 56.611 25.24 59.348 0 0 16.821-6.846 12.616-41.075-4.205-34.232 78.523 18.901 49.074 56.005-29.442 37.101-100.946 59.009-119.178-27.251-18.225-86.259 12.623-169.098 71.503-98.238z"  horiz-adv-x="1024" />

    
    <glyph glyph-name="tuxiao" unicode="&#58986;" d="M655.444 51.849c3.134 10.718 36.047 12.245 36.686 50.511 0.647 38.265-58.628 29.083-58.628 29.083-12.54 24.491 4.7 41.328 4.7 41.328 17.242-9.19 47.023-13.781 47.023-13.781 31.353 6.123-14.104 94.902-34.482 108.68-20.377 13.77-42.317 41.324-42.317 41.324 105.015 50.515 36.05 185.501 36.05 185.501 106.584 216.119 47.658 273.696 47.658 273.696-113.768-26.02-152.676-247.964-152.676-247.964h-35.182c-0.51 8.853 3.443 15.305 3.443 15.305 90.905 208.169 4.697 251.793 4.697 251.793C373.71 689.363 398.78 506.445 404.269 501.09c5.488-5.355 7.8-29.079 7.8-29.079-101.13-81.889-5.449-156.895 2.393-167.609 3.058-4.182 2.648-9.762 1.02-15.013l-1.414-0.296-37.615-16.837c-100.928-45.175-84.637-125.513-36.05-105.608 48.586 19.896 50.487 9.179 50.487 9.179l-6.606-53.574c-120.687 29.086-84.641-50.504-51.72-64.284 32.914-13.778 6.266-18.365 6.266-18.365-131.922-9.803-78.366-51.823-78.366-51.823 167.712-34.979 228.83 28.859 228.83 28.859-32.906 41.329 0 52.046 10.978 47.451 10.972-4.595 56.429-29.078 40.75-32.143-15.674-3.059-59.559-13.773-12.537-32.142 84.324-32.937 210.028 12.25 210.028 12.25-10.964 42.856-83.069 39.793-83.069 39.793zM456.947 397.828l0.223-0.055c-0.22 0.303-0.426 0.611-0.628 0.92-2.994 7.09 0.293 16.886 4.068 24.559 2.625 1.616 5.925 2.582 9.881 2.582 16.455 0 3.927-28.829 3.927-28.829l-4.548-7.079c-6.986 1.183-10.964 4.091-12.923 7.902z m86.23 25.007c1.464 3.018 5.988 6.093 10.837 5.949 4.68-0.138 8.189-4.059 10.816-9.545-3.374-20.254-10.43-22.971-15.445-21.982-10.834 3.545-6.207 25.578-6.207 25.578z m-13.284-77.049c-1.251-7.874-4.77-13.119-9.533-16.498-9.063-0.693-22.113-0.398-31.846-0.398-15.673 0-21.16 13.014 10.972 21.429 20.013 5.242 27.56 0.096 30.407-4.533z"  horiz-adv-x="1024" />

    
    <glyph glyph-name="niuxiao" unicode="&#58987;" d="M909.569 321.973c-18.067 23.183-72.78 59.473-91.364 106.86-18.583 47.386-80.52 77.224-92.908 67.345 0 0-7.227-3.833-18.582-5.85-11.351-2.019-124.86 3.975-137.813 4.887 0 0-60.856 8.578-66.586-25.56 0 0 21.681-136.093-96.002-172.386-117.686-36.294-181.172-7.563-181.172-7.563s-23.228-176.926 0-190.532c23.226-13.612 71.23 99.803 92.907 130.047l61.942-8.372s-18.581-126.211-7.744-141.334c10.843-15.121 65.488-2.331 80.52 127.023 0 0 154.85-10.589 176.532-9.071 0 0-12.9-108.419 18.582-105.855 18.577 1.513 13.932 80.143 20.127 107.365 0 0 40.263 6.049 61.937 10.587 0 0-4.644-108.873 9.288-119.465 13.943-10.584 83.624 54.439 66.586 270.684 0 0 6.194 7.564 20.132-28.73 13.935-36.291 40.257-102.48 83.617-75.434 0.001-0.002 18.062 42.162 0.001 65.354z m-669.344-8.838c16.994-2.219 32.7-3.836 46.91-4.962 89.666-12.212 138.101 13.978 164.18 43.928 7.957 5.237 15.38 13.406 21.59 25.316 28.388 54.438-7.748 99.803-23.232 119.799-0.255 0.329-0.514 0.627-0.77 0.939-0.528 11.891-1.103 29.024-0.922 44.265 26.978 3.376 41.948 18.156 41.948 28.557 0 10.584-58.841 46.771-58.841 46.771 0 15.02-6.196 46.982-21.677 60.595-15.484 13.611-23.23 0-23.23 0-3.1-42.339-46.456-57.464-92.91-60.486-46.453-3.026-52.644 60.486-52.644 60.486-37.942-0.755-61.169-71.83-61.169-71.833-33.292-0.758-67.431-27.977-67.431-27.977 16.183-28.732 63.563-45.366 63.563-45.366 1.535-0.236 3.326-0.679 5.307-1.259-4.79-15.653-11.947-36.381-20.207-51.628-28.45-10.384-55.669-30.045-47.036-78.666 11.55-65.06 72.99-81.446 94.067-85.183 11.722-2.836 22.856-3.58 32.504-3.296z m-18.184 58.245c-7.733 9.094-15.466 51.4 12.4 43.452 20.492-5.845 10.852-30.675 4.31-43.416-5.836-1.895-11.484-1.602-16.71-0.036z m143.24 146.673c0.533-0.644 1.12-1.216 1.753-1.728-1.067-6.484-2.412-12.985-4.092-18.557-6.666 0.787-10.82 2.138-10.82 2.138-29.422 7.562-3.099 37.807 13.158 18.147z m-20.903-103.221c15.318 20.557 24.572-0.649 27.771-29.748-3.937-8.921-10.933-14.113-19.197-16.88-0.81 0.716-1.604 1.274-2.376 1.652-12.392 6.049-21.686 24.195-6.198 44.976z m-76.652 85.071c-1.738-2.669-11.932-5.182-24.967-7.365-2.081 6.672-3.878 14.984-3.667 23.387 3.323 0.037 6.45 0.447 9.275 1.366 20.905 6.807 24.776-9.071 19.359-17.388z"  horiz-adv-x="1024" />

    
    <glyph glyph-name="yangxiao" unicode="&#58988;" d="M295.932 337.308c11.195 2.733 21.243 14.058 28.682 25.133 4.513 5.932 21.177 29.614 36.312 51.237 1.153 1.408 2.347 2.9 3.587 4.499 9.57 12.332 17.339 23.854 23.646 34.521l0.005 0.005c33.38 56.447 25.696 88.808 25.696 88.808 46.837 17.97 32.62 53.094 32.62 53.094h-57.712s-15.893 9.8-23.423 12.25c-7.518 2.455-7.518 26.144-7.518 47.791 0 21.643-14.223 13.477-14.223 13.477-11.713-14.7-41.823-44.105-41.823-44.105H262.47c-4.18 56.359-17.566 61.264-17.566 61.264-30.103-10.624-35.132-71.891-35.132-71.891s-8.366-42.482-18.406-37.574c-10.031 4.9-66.073 17.966-69.417-8.173-3.014-23.534 35.34-41.769 43.006-45.167 11.185-44.271 35.074-73.974 56.53-126.357 25.096-61.259 51.024-64.527 74.447-58.812z m-10.78 39.209c-45.966 23.972-0.65 33.52 7.154 34.935 9.503-3.36 14.832-7.322 17.582-11.269-0.903-0.955-1.67-2.283-2.252-4.068-5.852-17.971-22.484-19.598-22.484-19.598z m47.47 148.654c14.953 5.724 16.833-15.516 16.833-15.516-0.328-2.802-1.606-8.678-3.323-16.344-9.018-6.54-15.744-6.14-20.752-2.166-5.546 8.649-5.214 29.266 7.242 34.026z m-96.928-7.351c8.96 16.823 19.619-1.822 23.1-8.921-2.155-16.058-9.708-14.76-9.708-14.76-3.669-0.827-7.044-1.311-10.17-1.514-5.546 4.517-10.133 12.213-3.222 25.195z m7.82-183.168c1.117-11.362 4.464-67.395 38.48-67.047 37.77 0.378 38.476 67.749 38.476 67.749-36.807-36.811-76.956-0.702-76.956-0.702z m668.016 28.795s-6.688 43.29-77.786 60.448c-71.095 17.15-125.464-17.974-211.616-4.085 0.003-0.003-108.728 0.815-192.367 67.795 0 0-30.954-72.695-59.39-94.749 0 0 35.962-36.758 35.962-51.459 0-14.704 5.858-89.033-28.44-148.67-34.289-59.625-49.343-129.057-44.328-139.672 0 0 47.676-14.706 126.302 150.295 0 0 200.748-4.084 248.417 27.771 0 0 97.865-73.519 101.21-85.764 3.344-12.255-13.386-47.378-16.73-69.434-3.344-22.05-0.84-63.709 40.144-27.769 40.982 35.938 47.68 78.418 49.35 87.397 1.675 8.993 0.836 55.545-27.601 115.991s19.237 107.82 56.873 111.905zM465.732 48.158l10.03-8.985c15.892 9.801 49.35 150.292 49.35 150.292h-54.368l-5.012-141.307zM701.6 210.701v-176.618s31.78 13.25 37.633 54.91c5.861 41.659 16.726 67.793 28.443 68.608-0.004 0.001-32.626 51.469-66.076 53.1z"  horiz-adv-x="1024" />

    
    <glyph glyph-name="weiyanzheng" unicode="&#58989;" d="M512 725.333333a333.368889 333.368889 0 1 1 332.8-332.8A332.8 332.8 0 0 1 512 725.333333z m-28.444444-129.137777a28.444444 28.444444 0 0 0 28.444444 28.444444 28.444444 28.444444 0 0 0 28.444444-28.444444v-244.053334a29.013333 29.013333 0 0 0-28.444444-28.444444 28.444444 28.444444 0 0 0-28.444444 28.444444z m28.444444-403.911112a40.96 40.96 0 1 0 0 81.92 40.96 40.96 0 1 0 0-81.92z"  horiz-adv-x="1024" />

    
    <glyph glyph-name="fenye-xiayiye" unicode="&#58890;" d="M769.109333 384l-448-448-60.416 60.330667 448 448 60.416-60.330667z m-60.757333-60.672L254.890667 776.53333301 315.477333 836.949333 768.597333 383.57333300000005l-60.330666-60.330666z"  horiz-adv-x="1024" />

    
    <glyph glyph-name="caret-left" unicode="&#58882;" d="M331.008 390.624l294.144 294.144a31.968 31.968 0 0 0 45.248 0l22.624-22.624a31.968 31.968 0 0 0 0-45.248L444.128 368l248.896-248.896a31.968 31.968 0 0 0 0-45.248l-22.624-22.624a31.968 31.968 0 0 0-45.248 0l-294.144 294.144a31.968 31.968 0 0 0 0 45.248z"  horiz-adv-x="1024" />

    
    <glyph glyph-name="caret-right" unicode="&#58883;" d="M693.024 390.624l-294.144 294.144a31.968 31.968 0 0 1-45.248 0l-22.624-22.624a31.968 31.968 0 0 1 0-45.248l248.896-248.896-248.896-248.896a31.968 31.968 0 0 1 0-45.248l22.624-22.624a31.968 31.968 0 0 1 45.248 0l294.144 294.144a31.968 31.968 0 0 1 0 45.248z"  horiz-adv-x="1024" />

    


  </font>
</defs>
</svg>
